<svg xmlns="http://www.w3.org/2000/svg" viewBox="0 -25 380 400"><g fill="none" fill-rule="evenodd"><path fill="#291600" d="M177.76201 45.29017c3.44702 12.70215 7.9391 41.25361 3.35526 45.7323h-29a78.75123 78.75123 0 0 1-.00871-.15397C141.3599 89.679 133 80.56578 133 69.5v-21c0-11.87412 9.62588-21.5 21.5-21.5h2c10.7833 0 19.71245 7.93854 21.26201 18.29017Z"/><path fill="rgba(71, 70, 31, 0.59)" d="M144.26227 65.49013c-4.6079-5.40875-7.72664-12.03725-7.2055-19.46468 1.50156-21.40047 31.29176-16.69264 37.08657-5.89152 5.79481 10.80112 5.10624 38.19907-2.38304 40.12953-2.98671.76986-9.3493-1.116-15.82493-5.01915L160 104h-24l8.26227-38.50987Z"/><path fill="#291600" d="M150.74996 61.87483c1.10578 11.87801.66277 25.44243-2.6327 28.6623h-29c-1.61579-28.07365 14-17.20227 14-43.63434.9736-.95125 1.89355-1.89276 2.80386-2.70473l-.03224-.77736C140.91055 33.14023 147.2814 28 155.00142 28c11.58003 0 15.23517 5.38832 18.34726 9.96309-2.32716 7.98509-11.35825 9.1691-19.38294 14.14642-.94589-.7685-2.15202-1.2291-3.46574-1.2291-3.03757 0-5.5 2.46244-5.5 5.5 0 3.03757 2.46243 5.5 5.5 5.5.08377 0 .1671-.00187.24996-.00558Z"/></g><g fill="none" fill-rule="evenodd"><path fill="#C5CFD6" d="M92.62264 229h77.25455L180 353H65z"/><path fill="#000" fill-opacity=".1" d="M92.62264 229h23.76016l14.22097 124H65z"/><path fill="rgba(71, 70, 31, 0.59)" d="M257.9533 207.75613c8.2368-4.94598 22.05619 1.40858 22.0467 8.48229-.02839 21.1645-19.34332 120.91268-20.35178 127.2183-1.00845 6.3056-11.81157 7.97115-12.44067.02065-1.001-12.65058-2.86075-56.44425-1-76.71472.76808-8.36722 1.59526-16.33589 2.4096-23.44506-10.13525 18.30301-25.80992 44.5084-47.02402 78.61619l-11.51656-5.2616c9.0436-29.79608 16.4592-50.83132 22.24683-63.10572 9.90983-21.01674 19.2019-39.01479 23.11264-45.35445 6.1516-9.9723 16.85942-6.49282 22.51725-.45588Z"/><path fill="#1F28CF" d="m190.89979 300.1253 39.52759-93.638c9.46932-15.23247 36.01877 3.09968 32.78953 11.93441-7.33138 20.05758-44.6172 84.99253-46.80145 90.96835l-25.51567-9.26475Z"/><path fill="#E4E4E4" d="M188.7046 310.76727c-2.46212 2.027-4.06385 3.68251-4.80518 4.96655-.90165 1.56169-1.9572 3.9908-3.16667 7.2873l48.8454 28.20092c3.69207-3.46348 4.2673-6.15198 1.72572-8.0655-2.5416-1.91351-4.63898-3.52726-6.29218-4.84124l-16.85948-23.22857c-.32441-.44696-.94973-.5463-1.3967-.2219a.99995.99995 0 0 0-.0227.01697l-3.50312 2.69742c-3.21365-.28045-5.6119-.87759-7.19472-1.79143-1.286-.74248-2.76213-2.28723-4.42838-4.63424h.00001c-.63943-.90068-1.88793-1.11247-2.7886-.47304a2.00002 2.00002 0 0 0-.1134.08676ZM244.67813 338.40192C243.55938 341.38842 243 343.623 243 345.10567c0 1.80329.30041 4.43473.90124 7.89433h56.40181c1.46569-4.8455.61961-7.46142-2.53823-7.84778-3.15783-.38636-5.7811-.7352-7.8698-1.04655l-26.21503-11.68679c-.50443-.22487-1.09565.00175-1.32052.50618a.99995.99995 0 0 0-.01118.02605l-1.68508 4.08758c-2.92333 1.36396-5.29884 2.04594-7.12653 2.04594-1.48495 0-3.53569-.59972-6.1522-1.79918-1.0041-.4603-2.19122-.01946-2.65152.98464a2.00002 2.00002 0 0 0-.05483.13183Z"/><path fill="#2B44FF" d="M282.77037 223.43303c0 26.56697-12.61677 88.53726-12.62475 94.38708L243 317.84096c3.97328-55.29548 5.38217-83.24107 4.22668-83.83676-1.73323-.89354-71.05084 6.92083-91.84032 6.92083C125.40783 240.92503 113.0063 222.0204 112 187h59.38636c12.0916 1.29387 75.16246 14.01526 98.58574 18.38841 10.0279 1.87223 12.79827 10.7261 12.79827 18.04462Z"/></g><g fill="none" fill-rule="evenodd"><path fill="rgba(71, 70, 31, 0.59)" d="m216.04441 171.12251 28.3279 27.63503c8.24238 3.5158 14.99583 7.39797 20.26036 11.64649 1.18392 1.42807 2.4728 4.16433-3.09746 2.9399-5.57025-1.22444-11.4844-2.26185-12.53131-.45036-1.04692 1.81148 2.03791 4.58733.10307 6.9581-1.28989 1.58052-5.6279-3.4468-13.01401-15.08192l-29.45728-17.36728 9.40873-16.27996ZM90.30793 175.0199l20.89739.08218c-12.90318 41.65367-19.86897 63.75484-20.8974 66.30353-2.31394 5.73453 2.58268 14.46813 4.67667 19.1615-6.82005 3.05177-6.09337-8.25017-14.69667-4.2476-7.8527 3.65335-13.82623 10.27298-22.89888 4.67487-1.11543-.68825-2.33776-3.27966.61554-5.3047 7.35775-5.04512 17.96072-13.875 19.39335-16.78142 1.95364-3.96342 6.25698-25.25954 12.91-63.88836Z"/><path fill="#191847" d="m149.695 87.33203 8.64712-1.48317c14.88754 37.19023 40.87963 70.98228 77.97626 101.37614l-28.03208 34.05637c-37.0923-43.27679-59.95607-87.92657-58.5913-133.94934Z"/><path fill="#DDE3E9" d="M112 196h77c-17.83913-43.37485-26.7587-80.22128-26.7587-110.53927L139.0142 82C120.7599 111.3584 115.60484 147.50455 112 196Z"/><path fill="#2F3676" d="M138.52244 82.01642 138.53158 82h1.51617c1.81423.06247 4.57753.17503 8.2899.33767l5.6125 16.03921c.59369 19.55554 4.06068 58.96524 10.40098 118.22909h-50.47505c.13232 4.0931.3505 8.22445.65452 12.39403H77c5.61392-63.33604 26.11524-112.33604 61.50396-147l.01847.01642Z"/><path fill="#000" fill-opacity=".1" d="M117.21023 164.2331C118.64674 189.7479 122.24333 207.33686 128 217h-14.11092c-.61777-18.35715.48928-35.9461 3.32115-52.7669Z"/><path fill="#FFF" fill-opacity=".2" d="M125.1109 186 150 174.42927V186z"/></g></svg>